<svg xmlns="http://www.w3.org/2000/svg" version="1.1" xmlns:xlink="http://www.w3.org/1999/xlink" viewBox="0 0 200 200" width="200" height="200"><metadata><rdf:RDF xmlns:rdf="http://www.w3.org/1999/02/22-rdf-syntax-ns#" xmlns:dc="http://purl.org/dc/elements/1.1/"><rdf:Description><dc:creator>RealFaviconGenerator</dc:creator><dc:source>https://realfavicongenerator.net</dc:source></rdf:Description></rdf:RDF></metadata><rect width="200" height="200" fill="url('#gradient')"></rect><defs><linearGradient id="gradient" gradientTransform="rotate(45 0.5 0.5)"><stop offset="0%" stop-color="#dbd4c9"></stop><stop offset="100%" stop-color="#b95232"></stop></linearGradient></defs><g><g fill="#283855" transform="matrix(1.7998242359144614,0,0,1.7998242359144614,8.06987469191197,109.65726701734401)" stroke="#739bab" stroke-width="0.2"><path d="M6.69-4.82L4.50-4.82L4.50 0L1.07 0L1.07-14.22L6.75-14.22Q8.38-14.22 9.63-13.62Q10.89-13.02 11.58-11.91Q12.27-10.80 12.27-9.39L12.27-9.39Q12.27-7.31 10.78-6.07Q9.29-4.82 6.69-4.82L6.69-4.82ZM4.50-11.57L4.50-7.47L6.75-7.47Q7.74-7.47 8.27-7.97Q8.79-8.47 8.79-9.38L8.79-9.38Q8.79-10.37 8.25-10.97Q7.71-11.56 6.79-11.57L6.79-11.57L4.50-11.57ZM20.39-10.64L20.33-7.59L19.25-7.67Q17.70-7.67 17.26-6.69L17.26-6.69L17.26 0L13.96 0L13.96-10.57L17.05-10.57L17.16-9.21Q17.99-10.76 19.47-10.76L19.47-10.76Q20-10.76 20.39-10.64L20.39-10.64ZM20.76-4.82L20.75-5.38Q20.75-6.96 21.37-8.20Q21.98-9.43 23.13-10.10Q24.29-10.76 25.84-10.76L25.84-10.76Q28.21-10.76 29.58-9.29Q30.95-7.82 30.95-5.29L30.95-5.29L30.95-5.18Q30.95-2.71 29.58-1.25Q28.20 0.20 25.86 0.20L25.86 0.20Q23.60 0.20 22.24-1.16Q20.87-2.51 20.76-4.82L20.76-4.82ZM24.05-5.77L24.04-5.18Q24.04-3.71 24.50-3.03Q24.96-2.34 25.86-2.34L25.86-2.34Q27.62-2.34 27.66-5.05L27.66-5.05L27.66-5.38Q27.66-8.22 25.84-8.22L25.84-8.22Q24.19-8.22 24.05-5.77L24.05-5.77ZM32.64-10.57L35.94-10.57L35.94 0.36Q35.93 2.24 34.86 3.25Q33.80 4.27 31.89 4.27L31.89 4.27Q31.07 4.27 30.34 4.10L30.34 4.10L30.34 1.61Q30.91 1.70 31.27 1.70L31.27 1.70Q32.64 1.70 32.64 0.34L32.64 0.34L32.64-10.57ZM32.39-13.29L32.39-13.29Q32.39-13.99 32.90-14.44Q33.41-14.89 34.22-14.89Q35.03-14.89 35.54-14.44Q36.04-13.99 36.04-13.29Q36.04-12.59 35.54-12.14Q35.03-11.69 34.22-11.69Q33.41-11.69 32.90-12.14Q32.39-12.59 32.39-13.29ZM42.91 0.20L42.91 0.20Q40.48 0.20 38.97-1.25Q37.47-2.71 37.47-5.03L37.47-5.03L37.47-5.30Q37.47-6.92 38.07-8.16Q38.67-9.40 39.82-10.08Q40.98-10.76 42.56-10.76L42.56-10.76Q44.79-10.76 46.07-9.38Q47.36-8.00 47.36-5.53L47.36-5.53L47.36-4.25L40.82-4.25Q41.00-3.36 41.59-2.85Q42.19-2.34 43.13-2.34L43.13-2.34Q44.70-2.34 45.58-3.44L45.58-3.44L47.08-1.66Q46.46-0.81 45.34-0.31Q44.21 0.20 42.91 0.20ZM42.54-8.22L42.54-8.22Q41.09-8.22 40.82-6.31L40.82-6.31L44.14-6.31L44.14-6.56Q44.16-7.35 43.74-7.79Q43.32-8.22 42.54-8.22ZM53.15-2.34L53.15-2.34Q53.85-2.34 54.23-2.72Q54.61-3.10 54.60-3.77L54.60-3.77L57.69-3.77Q57.69-2.03 56.44-0.92Q55.20 0.20 53.23 0.20L53.23 0.20Q50.93 0.20 49.60-1.25Q48.27-2.70 48.27-5.25L48.27-5.25L48.27-5.39Q48.27-6.99 48.86-8.22Q49.45-9.44 50.57-10.10Q51.68-10.76 53.20-10.76L53.20-10.76Q55.26-10.76 56.47-9.62Q57.69-8.48 57.69-6.52L57.69-6.52L54.60-6.52Q54.60-7.34 54.20-7.78Q53.80-8.22 53.13-8.22L53.13-8.22Q51.85-8.22 51.63-6.59L51.63-6.59Q51.56-6.07 51.56-5.17L51.56-5.17Q51.56-3.57 51.94-2.96Q52.32-2.34 53.15-2.34ZM59.62-13.19L62.91-13.19L62.91-10.57L64.65-10.57L64.65-8.28L62.91-8.28L62.91-3.45Q62.91-2.85 63.13-2.62Q63.34-2.38 63.97-2.38L63.97-2.38Q64.46-2.38 64.79-2.44L64.79-2.44L64.79-0.09Q63.91 0.20 62.94 0.20L62.94 0.20Q61.24 0.20 60.43-0.61Q59.62-1.41 59.62-3.04L59.62-3.04L59.62-8.28L58.27-8.28L58.27-10.57L59.62-10.57L59.62-13.19ZM77.98-14.22L77.98 0L74.57 0L74.57-5.94L69.52-5.94L69.52 0L66.09 0L66.09-14.22L69.52-14.22L69.52-8.57L74.57-8.57L74.57-14.22L77.98-14.22ZM86.39 0L86.29-1.14Q85.24 0.20 83.47 0.20L83.47 0.20Q81.73 0.20 80.83-0.82Q79.94-1.83 79.94-3.72L79.94-3.72L79.94-10.57L83.23-10.57L83.23-3.70Q83.23-2.34 84.55-2.34L84.55-2.34Q85.68-2.34 86.16-3.15L86.16-3.15L86.16-10.57L89.47-10.57L89.47 0L86.39 0ZM101.08-5.36L101.08-5.20Q101.08-2.60 100.01-1.20Q98.94 0.20 96.98 0.20L96.98 0.20Q95.37 0.20 94.38-1.08L94.38-1.08L94.25 0L91.30 0L91.30-15L94.59-15L94.59-9.72Q95.51-10.76 96.96-10.76L96.96-10.76Q98.94-10.76 100.01-9.35Q101.08-7.93 101.08-5.36L101.08-5.36ZM97.78-5.40L97.78-5.40Q97.78-6.92 97.38-7.57Q96.97-8.22 96.13-8.22L96.13-8.22Q95.02-8.22 94.59-7.37L94.59-7.37L94.59-3.17Q95.01-2.33 96.15-2.33L96.15-2.33Q97.31-2.33 97.63-3.47L97.63-3.47Q97.78-4.02 97.78-5.40Z"></path></g></g></svg>